<svg width="40" height="40" viewBox="0 0 40 40" fill="none" xmlns="http://www.w3.org/2000/svg">
<path d="M20 40C31.0452 40 40 31.0452 40 20C40 8.95481 31.0452 -3.91427e-07 20 -8.74228e-07C8.95481 -1.35703e-06 -1.10668e-06 8.95481 -1.58948e-06 20C-2.07228e-06 31.0452 8.95481 40 20 40ZM22.7587 30.3183L13.5279 21.0875C13.2396 20.799 13.0776 20.4078 13.0776 20C13.0776 19.5921 13.2396 19.201 13.5279 18.9125L22.7587 9.68173C23.0495 9.40539 23.4368 9.25361 23.838 9.25875C24.2392 9.26388 24.6225 9.42553 24.9062 9.70923C25.1899 9.99292 25.3515 10.3762 25.3566 10.7774C25.3618 11.1786 25.21 11.5659 24.9337 11.8567L16.7913 20L24.9337 28.1433C25.21 28.4341 25.3618 28.8214 25.3566 29.2226C25.3515 29.6238 25.1899 30.0071 24.9062 30.2908C24.6225 30.5745 24.2392 30.7361 23.838 30.7413C23.4368 30.7464 23.0495 30.5946 22.7587 30.3183Z" fill="white"/>
</svg>
