<svg width="40" height="40" viewBox="0 0 40 40" fill="none" xmlns="http://www.w3.org/2000/svg">
<path d="M20 -1.58948e-06C8.95481 -1.10668e-06 -1.35703e-06 8.95481 -8.74228e-07 20C-3.91427e-07 31.0452 8.95481 40 20 40C31.0452 40 40 31.0452 40 20C40 8.95481 31.0452 -2.07228e-06 20 -1.58948e-06ZM17.2413 9.68173L26.4721 18.9125C26.7604 19.201 26.9224 19.5921 26.9224 20C26.9224 20.4078 26.7604 20.799 26.4721 21.0875L17.2413 30.3183C16.9505 30.5946 16.5632 30.7464 16.162 30.7413C15.7608 30.7361 15.3775 30.5745 15.0938 30.2908C14.8101 30.0071 14.6485 29.6238 14.6434 29.2226C14.6382 28.8214 14.79 28.4341 15.0663 28.1433L23.2087 20L15.0663 11.8567C14.79 11.5659 14.6382 11.1786 14.6434 10.7774C14.6485 10.3762 14.8101 9.99292 15.0938 9.70922C15.3775 9.42553 15.7608 9.26388 16.162 9.25874C16.5632 9.25361 16.9505 9.40539 17.2413 9.68173Z" fill="white"/>
</svg>
