<svg width="43" height="40" viewBox="0 0 43 40" fill="none" xmlns="http://www.w3.org/2000/svg">
<path d="M42.1851 0.239075C42.1851 0.239075 26.5645 -0.989797 13.7292 15.5291C3.87895 28.2036 -5.59464e-05 39.9514 -5.59464e-05 39.9514L4.03392 38.0238C7.13665 32.9944 8.73586 30.9319 11.7136 28.0093C16.8483 29.6804 22.2595 29.6591 27.1119 24.375C23.0513 23.1051 19.7672 23.2725 14.9201 23.6183C20.4578 20.0761 24.1886 19.3689 29.2828 20.342L31.4538 16.3091C27.7891 15.502 25.3339 15.3665 21.6639 16.0961C25.7834 13.3719 28.6367 11.8595 33.6247 12.2762L36.2213 8.39951C33.0339 8.07806 31.0987 8.3681 27.4064 9.15848C30.7931 6.26874 33.8437 5.00821 38.2335 4.87409C38.2335 4.87409 40.5001 1.06945 42.1851 0.239075V0.239075Z" fill="white"/>
</svg>
