<svg width="260" height="72" viewBox="0 0 260 72" fill="none" xmlns="http://www.w3.org/2000/svg">
<path d="M52.6224 12.0247C52.6224 12.0247 37.0018 10.7958 24.1665 27.3148C14.3162 39.9892 10.4372 51.7371 10.4372 51.7371L14.4712 49.8094C17.5739 44.78 19.1731 42.7175 22.1509 39.795C27.2856 41.4661 32.6967 41.4447 37.5491 36.1606C33.4885 34.8907 30.2044 35.0582 25.3573 35.4039C30.8951 31.8618 34.6258 31.1545 39.7201 32.1277L41.891 28.0947C38.2264 27.2876 35.7711 27.1521 32.1012 27.8817C36.2206 25.1575 39.0739 23.6451 44.062 24.0618L46.6586 20.1852C43.4712 19.8637 41.536 20.1537 37.8437 20.9441C41.2303 18.0544 44.281 16.7939 48.6708 16.6597C48.6708 16.6597 50.9373 12.8551 52.6224 12.0247V12.0247Z" fill="black"/>
<path d="M90.3784 35.72C92.3304 36.136 93.8984 37.112 95.0824 38.648C96.2664 40.152 96.8584 41.88 96.8584 43.832C96.8584 46.648 95.8664 48.888 93.8824 50.552C91.9304 52.184 89.1944 53 85.6744 53H69.9784V19.304H85.1464C88.5704 19.304 91.2424 20.088 93.1624 21.656C95.1144 23.224 96.0904 25.352 96.0904 28.04C96.0904 30.024 95.5624 31.672 94.5064 32.984C93.4824 34.296 92.1064 35.208 90.3784 35.72ZM78.1864 32.936H83.5624C84.9064 32.936 85.9304 32.648 86.6344 32.072C87.3704 31.464 87.7384 30.584 87.7384 29.432C87.7384 28.28 87.3704 27.4 86.6344 26.792C85.9304 26.184 84.9064 25.88 83.5624 25.88H78.1864V32.936ZM84.2344 46.376C85.6104 46.376 86.6664 46.072 87.4024 45.464C88.1704 44.824 88.5544 43.912 88.5544 42.728C88.5544 41.544 88.1544 40.616 87.3544 39.944C86.5864 39.272 85.5144 38.936 84.1384 38.936H78.1864V46.376H84.2344ZM109.827 17.48V53H101.619V17.48H109.827ZM127.967 53.384C125.343 53.384 122.975 52.824 120.863 51.704C118.783 50.584 117.135 48.984 115.919 46.904C114.735 44.824 114.143 42.392 114.143 39.608C114.143 36.856 114.751 34.44 115.967 32.36C117.183 30.248 118.847 28.632 120.959 27.512C123.071 26.392 125.439 25.832 128.063 25.832C130.687 25.832 133.055 26.392 135.167 27.512C137.279 28.632 138.943 30.248 140.159 32.36C141.375 34.44 141.983 36.856 141.983 39.608C141.983 42.36 141.359 44.792 140.111 46.904C138.895 48.984 137.215 50.584 135.071 51.704C132.959 52.824 130.591 53.384 127.967 53.384ZM127.967 46.28C129.535 46.28 130.863 45.704 131.951 44.552C133.071 43.4 133.631 41.752 133.631 39.608C133.631 37.464 133.087 35.816 131.999 34.664C130.943 33.512 129.631 32.936 128.063 32.936C126.463 32.936 125.135 33.512 124.079 34.664C123.023 35.784 122.495 37.432 122.495 39.608C122.495 41.752 123.007 43.4 124.031 44.552C125.087 45.704 126.399 46.28 127.967 46.28ZM156.514 25.832C158.402 25.832 160.05 26.216 161.458 26.984C162.898 27.752 164.002 28.76 164.77 30.008V26.216H172.978V52.952C172.978 55.416 172.482 57.64 171.49 59.624C170.53 61.64 169.042 63.24 167.026 64.424C165.042 65.608 162.562 66.2 159.586 66.2C155.618 66.2 152.402 65.256 149.938 63.368C147.474 61.512 146.066 58.984 145.714 55.784H153.826C154.082 56.808 154.69 57.608 155.65 58.184C156.61 58.792 157.794 59.096 159.202 59.096C160.898 59.096 162.242 58.6 163.234 57.608C164.258 56.648 164.77 55.096 164.77 52.952V49.16C163.97 50.408 162.866 51.432 161.458 52.232C160.05 53 158.402 53.384 156.514 53.384C154.306 53.384 152.306 52.824 150.514 51.704C148.722 50.552 147.298 48.936 146.242 46.856C145.218 44.744 144.706 42.312 144.706 39.56C144.706 36.808 145.218 34.392 146.242 32.312C147.298 30.232 148.722 28.632 150.514 27.512C152.306 26.392 154.306 25.832 156.514 25.832ZM164.77 39.608C164.77 37.56 164.194 35.944 163.042 34.76C161.922 33.576 160.546 32.984 158.914 32.984C157.282 32.984 155.89 33.576 154.738 34.76C153.618 35.912 153.058 37.512 153.058 39.56C153.058 41.608 153.618 43.24 154.738 44.456C155.89 45.64 157.282 46.232 158.914 46.232C160.546 46.232 161.922 45.64 163.042 44.456C164.194 43.272 164.77 41.656 164.77 39.608ZM189.092 25.832C190.98 25.832 192.628 26.216 194.036 26.984C195.476 27.752 196.58 28.76 197.348 30.008V26.216H205.556V52.952C205.556 55.416 205.06 57.64 204.068 59.624C203.108 61.64 201.62 63.24 199.604 64.424C197.62 65.608 195.14 66.2 192.164 66.2C188.196 66.2 184.98 65.256 182.516 63.368C180.052 61.512 178.644 58.984 178.292 55.784H186.404C186.66 56.808 187.268 57.608 188.228 58.184C189.188 58.792 190.372 59.096 191.78 59.096C193.476 59.096 194.82 58.6 195.812 57.608C196.836 56.648 197.348 55.096 197.348 52.952V49.16C196.548 50.408 195.444 51.432 194.036 52.232C192.628 53 190.98 53.384 189.092 53.384C186.884 53.384 184.884 52.824 183.092 51.704C181.3 50.552 179.876 48.936 178.82 46.856C177.796 44.744 177.284 42.312 177.284 39.56C177.284 36.808 177.796 34.392 178.82 32.312C179.876 30.232 181.3 28.632 183.092 27.512C184.884 26.392 186.884 25.832 189.092 25.832ZM197.348 39.608C197.348 37.56 196.772 35.944 195.62 34.76C194.5 33.576 193.124 32.984 191.492 32.984C189.86 32.984 188.468 33.576 187.316 34.76C186.196 35.912 185.636 37.512 185.636 39.56C185.636 41.608 186.196 43.24 187.316 44.456C188.468 45.64 189.86 46.232 191.492 46.232C193.124 46.232 194.5 45.64 195.62 44.456C196.772 43.272 197.348 41.656 197.348 39.608ZM236.742 39.176C236.742 39.944 236.694 40.744 236.598 41.576H218.022C218.15 43.24 218.678 44.52 219.606 45.416C220.566 46.28 221.734 46.712 223.11 46.712C225.158 46.712 226.582 45.848 227.382 44.12H236.118C235.67 45.88 234.854 47.464 233.67 48.872C232.518 50.28 231.062 51.384 229.302 52.184C227.542 52.984 225.574 53.384 223.398 53.384C220.774 53.384 218.438 52.824 216.39 51.704C214.342 50.584 212.742 48.984 211.59 46.904C210.438 44.824 209.862 42.392 209.862 39.608C209.862 36.824 210.422 34.392 211.542 32.312C212.694 30.232 214.294 28.632 216.342 27.512C218.39 26.392 220.742 25.832 223.398 25.832C225.99 25.832 228.294 26.376 230.31 27.464C232.326 28.552 233.894 30.104 235.014 32.12C236.166 34.136 236.742 36.488 236.742 39.176ZM228.342 37.016C228.342 35.608 227.862 34.488 226.902 33.656C225.942 32.824 224.742 32.408 223.302 32.408C221.926 32.408 220.758 32.808 219.798 33.608C218.87 34.408 218.294 35.544 218.07 37.016H228.342ZM249.28 30.68C250.24 29.208 251.44 28.056 252.88 27.224C254.32 26.36 255.92 25.928 257.68 25.928V34.616H255.424C253.376 34.616 251.84 35.064 250.816 35.96C249.792 36.824 249.28 38.36 249.28 40.568V53H241.072V26.216H249.28V30.68Z" fill="black"/>
</svg>
