<svg width="78" height="79" viewBox="0 0 78 79" fill="none" xmlns="http://www.w3.org/2000/svg">
<path d="M39.001 0C17.464 0 0 17.462 0 39.001C0 54.971 9.603 68.689 23.345 74.721C23.235 71.998 23.324 68.727 24.024 65.768C24.774 62.6 29.042 44.516 29.042 44.516C29.042 44.516 27.796 42.026 27.796 38.346C27.796 32.567 31.146 28.248 35.316 28.248C38.863 28.248 40.577 30.912 40.577 34.103C40.577 37.669 38.304 42.999 37.134 47.943C36.156 52.082 39.209 55.455 43.29 55.455C50.679 55.455 55.655 45.965 55.655 34.719C55.655 26.174 49.899 19.776 39.428 19.776C27.597 19.776 20.227 28.598 20.227 38.452C20.227 41.852 21.229 44.247 22.799 46.1C23.52 46.953 23.62 47.296 23.359 48.276C23.172 48.993 22.742 50.72 22.565 51.405C22.306 52.393 21.506 52.745 20.612 52.381C15.163 50.156 12.625 44.189 12.625 37.481C12.625 26.401 21.968 13.118 40.498 13.118C55.389 13.118 65.189 23.893 65.189 35.462C65.189 50.759 56.683 62.189 44.145 62.189C39.936 62.189 35.975 59.912 34.618 57.328C34.618 57.328 32.354 66.312 31.875 68.05C31.048 71.057 29.429 74.063 27.949 76.404C31.5374 77.4651 35.26 78.0039 39.002 78.004C60.538 78.002 78 60.539 78 39.001C78 17.462 60.538 0 39.001 0V0Z" fill="white"/>
</svg>
