<svg width="78" height="64" viewBox="0 0 78 64" fill="none" xmlns="http://www.w3.org/2000/svg">
<path d="M77.4999 8.11992C74.6168 9.39719 71.5585 10.2352 68.4269 10.6059C71.7254 8.63233 74.1938 5.52673 75.3719 1.86792C72.2715 3.70847 68.8788 5.00453 65.341 5.69992C63.8628 4.12335 62.0767 2.86713 60.0932 2.00912C58.1097 1.15111 55.9711 0.70959 53.8099 0.711923C45.0859 0.711923 38.0119 7.78392 38.0119 16.5099C38.0119 17.7469 38.152 18.9539 38.422 20.1109C25.292 19.4519 13.6519 13.1619 5.85995 3.60292C4.45502 6.01399 3.71677 8.7554 3.72095 11.5459C3.71888 14.1469 4.35933 16.7082 5.5854 19.0021C6.81147 21.296 8.58519 23.2515 10.7489 24.6949C8.24065 24.6152 5.78763 23.9378 3.59395 22.7189C3.59195 22.7849 3.59195 22.8499 3.59195 22.9179C3.59195 30.5699 9.03695 36.9549 16.2629 38.4079C13.9362 39.0378 11.4967 39.1301 9.12895 38.6779C11.1389 44.9529 16.9729 49.5219 23.886 49.6499C18.2899 54.0415 11.3795 56.4235 4.26595 56.4129C2.99095 56.4129 1.73395 56.3389 0.496948 56.1919C7.72028 60.8331 16.1271 63.2965 24.7129 63.2879C53.771 63.2879 69.6609 39.2169 69.6609 18.3429C69.6609 17.6589 69.6449 16.9759 69.6149 16.2969C72.7095 14.0628 75.3798 11.2936 77.4999 8.11992V8.11992Z" fill="white"/>
</svg>
