<svg width="76" height="54" viewBox="0 0 76 54" fill="none" xmlns="http://www.w3.org/2000/svg">
<path d="M29.8809 36.2608L50.2103 25.7447L29.8809 15.105V36.2608ZM37.6544 0.00220833C42.3603 0.00220833 46.9051 0.0655139 51.289 0.192125C55.6728 0.318736 58.8868 0.451972 60.9309 0.591833L63.9971 0.7685C64.025 0.7685 64.2603 0.789847 64.7029 0.832542C65.0713 0.86125 65.4022 0.905417 65.7287 0.96725L65.6713 0.958417C65.8684 1.00111 66.1978 1.06442 66.6596 1.14833C67.1118 1.22562 67.5154 1.34267 67.8971 1.49725L67.8574 1.484C68.1941 1.62386 68.5868 1.80642 69.0353 2.03167C69.5316 2.28342 69.9596 2.55725 70.3566 2.86421L70.339 2.85096C70.7868 3.19987 71.1838 3.56425 71.55 3.95954L71.5566 3.96617C71.7816 4.20246 71.9956 4.45642 72.1919 4.72142L72.2073 4.7435C72.6529 5.44575 73.0632 6.25842 73.3919 7.10862L73.425 7.20579C73.9544 8.44025 74.3448 9.87125 74.5301 11.3685L74.539 11.4458C74.7625 13.2404 74.939 15.1543 75.0684 17.1875C75.1978 19.2206 75.275 20.8106 75.3 21.9575V29.3598L75.3022 29.9406C75.3022 34.0326 75.0265 38.0628 74.4926 42.0091L74.5434 41.5498C74.3684 43.0246 73.999 44.4696 73.4448 45.8472L73.4846 45.7346C73.1519 46.6668 72.6916 47.5482 72.1169 48.3537L72.139 48.3205L71.5522 49.0272C71.184 49.4248 70.7842 49.7919 70.3566 50.1247L70.3346 50.1424C69.9439 50.4468 69.5216 50.7081 69.075 50.922L69.0331 50.9396C68.5846 51.1501 68.1919 51.3268 67.8551 51.4696C67.4805 51.621 67.0908 51.7321 66.6926 51.8009L66.6574 51.8053C66.1956 51.8892 65.8596 51.9525 65.6493 51.9952C65.439 52.0379 65.1169 52.0799 64.6831 52.1211C64.2493 52.1623 64.0184 52.1836 63.9904 52.1851C56.9684 52.7328 48.1912 53.0066 37.6588 53.0066C31.8603 52.9507 26.825 52.8594 22.5529 52.7328C18.2809 52.6062 15.4728 52.5009 14.1287 52.417L12.0684 52.2403L10.5551 52.0637C9.73619 51.9649 8.92428 51.8144 8.12426 51.6132L8.26103 51.6419C7.49667 51.4059 6.75597 51.0991 6.04853 50.7254L6.11912 50.7585C5.23467 50.3267 4.43221 49.7438 3.74779 49.036L3.74559 49.0338C3.51857 48.7953 3.3064 48.5431 3.11029 48.2786L3.09485 48.2565C2.62456 47.5083 2.22785 46.7162 1.91029 45.8914L1.87721 45.7942C1.31716 44.4649 0.945189 43.0638 0.772059 41.6315L0.763235 41.5542C0.539706 39.7596 0.363235 37.8457 0.233824 35.8125C0.104412 33.7794 0.0272059 32.1894 0.00220588 31.0425V23.6402L0 23.0594C0 18.9674 0.275735 14.9372 0.809559 10.9909L0.758824 11.4502C0.933767 9.97544 1.30316 8.53039 1.85735 7.15279L1.81765 7.26542C2.175 6.27829 2.62941 5.42367 3.18529 4.64633L3.16324 4.67946L3.75 3.97279C4.12279 3.57087 4.51985 3.2065 4.94559 2.87525L4.96765 2.85758C5.34706 2.56167 5.77279 2.29004 6.225 2.05817L6.27132 2.03608C6.71985 1.81231 7.1125 1.62975 7.44926 1.48842C7.82392 1.337 8.21362 1.22596 8.61176 1.15717L8.64706 1.15275C9.10882 1.06883 9.43824 1.00553 9.63529 0.962833C9.90221 0.909833 10.2331 0.865667 10.5706 0.839167L10.6037 0.836958C11.0522 0.794264 11.2875 0.772917 11.3096 0.772917C18.3434 0.257639 27.1272 0 37.661 0L37.6544 0.00220833Z" fill="white"/>
</svg>
